<?xml version="1.0" encoding="UTF-8"?>
<svg xmlns="http://www.w3.org/2000/svg" xmlns:xlink="http://www.w3.org/1999/xlink" width="375pt" height="374.999991pt" viewBox="0 0 375 374.999991" version="1.2">
<defs>
<clipPath id="clip1">
  <path d="M 0 11.289062 L 375 11.289062 L 375 363.734375 L 0 363.734375 Z M 0 11.289062 "/>
</clipPath>
</defs>
<g id="surface1">
<g clip-path="url(#clip1)" clip-rule="nonzero">
<path style=" stroke:none;fill-rule:nonzero;fill:rgb(10.978699%,9.408569%,8.239746%);fill-opacity:1;" d="M 365.125 308.886719 C 353.589844 328.21875 332.972656 340.28125 312.164062 348.871094 C 255.835938 372.125 192.957031 362.808594 132.390625 356.09375 C 89.457031 351.332031 41.445312 337.410156 22.605469 298.535156 C 14.84375 282.519531 13.246094 264.324219 11.773438 246.589844 C 8.550781 207.871094 -4.316406 156.097656 1.484375 124.886719 L 1.492188 124.882812 C 3.300781 100.179688 15.230469 75.339844 33.328125 57.964844 C 63.539062 28.960938 106.472656 17.21875 148.140625 12.972656 C 220.328125 5.617188 285.671875 21.773438 339.191406 73.550781 C 352.59375 86.523438 364.585938 101.96875 368.675781 120.164062 C 374.675781 133.28125 380.652344 282.863281 365.125 308.886719 "/>
</g>
<path style=" stroke:none;fill-rule:nonzero;fill:rgb(99.609375%,95.689392%,88.238525%);fill-opacity:1;" d="M 351.425781 135.070312 C 350.902344 129.367188 347.300781 124.136719 342.367188 121.234375 C 337.433594 118.332031 331.3125 117.695312 325.761719 119.09375 C 331.179688 118.773438 336.324219 123.460938 340.160156 127.304688 C 343.210938 130.363281 348.957031 131.523438 351.425781 135.070312 Z M 303.246094 182.25 C 293.804688 177.847656 281.675781 180.132812 274.484375 187.667969 C 273.257812 188.953125 272.109375 190.8125 272.910156 192.402344 C 278.488281 189.660156 285.058594 187.890625 290.945312 185.890625 C 295.910156 184.203125 298.46875 180.074219 303.246094 182.25 Z M 269.019531 51.839844 C 275.023438 54.121094 279.613281 56.753906 284.710938 60.652344 C 283.308594 55.117188 278.664062 51.03125 273.878906 47.917969 C 271.144531 46.140625 268.199219 44.523438 264.972656 44.066406 C 259.429688 43.292969 253.558594 46.433594 251.132812 51.480469 C 256.746094 48.367188 263.019531 49.558594 269.019531 51.839844 Z M 250.214844 97.085938 C 248.757812 93.136719 247.183594 89.035156 244.074219 86.199219 C 240.964844 83.363281 235.828125 82.273438 232.558594 84.921875 C 231.335938 78.425781 226.421875 72.757812 220.167969 70.625 C 213.910156 68.496094 206.558594 69.984375 201.625 74.382812 C 207.308594 73.804688 214.59375 73.222656 219.195312 76.609375 C 223.796875 79.996094 227.078125 85.128906 228.214844 90.730469 C 235.714844 88.140625 243.921875 92.257812 250.214844 97.085938 Z M 224.890625 225.105469 C 223.652344 224.007812 222.089844 223.355469 220.519531 222.84375 C 211.886719 220.023438 202.046875 221.152344 194.273438 225.851562 C 205.234375 226.902344 214.984375 229.894531 224.890625 225.105469 Z M 151.15625 42.226562 C 142.75 38.3125 131.992188 40.1875 125.410156 46.726562 C 124.792969 47.335938 124.199219 48.351562 124.785156 48.988281 C 133.765625 43.996094 140.882812 42.371094 151.15625 42.226562 Z M 78.320312 123.855469 C 74.160156 121.808594 69.078125 121.75 64.871094 123.691406 C 60.667969 125.632812 57.417969 129.542969 56.28125 134.03125 C 56.117188 134.679688 55.988281 135.347656 55.636719 135.914062 C 55.222656 136.585938 54.535156 137.035156 53.890625 137.488281 C 51.660156 139.058594 49.644531 140.929688 47.917969 143.039062 C 46.011719 145.367188 44.417969 148.109375 44.199219 151.113281 C 43.980469 154.117188 45.433594 157.382812 48.195312 158.578125 C 47.253906 155.070312 48.804688 151.726562 51.050781 148.875 C 53.300781 146.023438 56.199219 143.746094 58.515625 140.953125 C 60.535156 138.515625 62.09375 135.707031 64.273438 133.410156 C 67.261719 130.246094 74.101562 124.9375 78.320312 123.855469 Z M 51.910156 110.757812 C 51.03125 102.078125 54.402344 94.726562 59.851562 87.910156 C 61.371094 86.007812 63.117188 84.257812 65.179688 82.960938 C 66.648438 82.042969 68.257812 81.367188 69.851562 80.699219 C 71.367188 80.0625 73.230469 78.710938 74.746094 78.074219 C 69.699219 76.65625 64.097656 77.90625 59.773438 80.867188 C 55.449219 83.832031 52.347656 88.375 50.574219 93.304688 C 50.027344 94.8125 49.601562 96.367188 49.375 97.953125 C 48.753906 102.339844 49.742188 106.894531 51.910156 110.757812 Z M 369.484375 143.789062 C 366.589844 163.871094 355.140625 183.074219 340.074219 197.160156 C 304.949219 229.992188 253.679688 239.1875 205.601562 238.433594 C 163.316406 237.777344 121.136719 230.546875 81.039062 217.09375 C 56.9375 209.007812 32.386719 197.636719 16.863281 177.875 C 15.054688 174.394531 13.445312 170.816406 12.164062 167.101562 C 8.722656 157.128906 7.8125 145.894531 11.867188 136.15625 C 12.902344 133.667969 14.273438 131.210938 14.34375 128.515625 C 14.40625 126.167969 13.472656 123.921875 12.78125 121.675781 C 7.347656 103.980469 19.511719 82.953125 37.566406 78.84375 C 37.105469 65.988281 48.417969 56.105469 59 48.785156 C 65.195312 44.5 73.871094 40.4375 79.644531 45.265625 C 82.613281 37.914062 90.238281 33.335938 97.972656 31.582031 C 105.707031 29.828125 113.746094 30.371094 121.675781 30.265625 C 123.917969 30.238281 126.226562 30.140625 128.277344 29.21875 C 130.199219 28.351562 131.734375 26.828125 133.351562 25.46875 C 144.9375 15.695312 162.71875 14.078125 175.882812 21.597656 C 186.429688 13.730469 203.480469 17.066406 210.285156 28.328125 C 227.941406 20.910156 250.292969 26.179688 263.046875 40.460938 C 263.082031 36.292969 268.445312 34.476562 272.605469 34.75 C 284.632812 35.546875 295.675781 44.570312 298.855469 56.195312 C 305.996094 55.457031 315.492188 60.109375 319.691406 65.933594 C 323.894531 71.757812 325.523438 79.105469 325.679688 86.285156 C 332.558594 83.828125 340.539062 87.28125 345.0625 93.015625 C 349.582031 98.75 351.203125 106.269531 351.617188 113.5625 C 357.421875 113.824219 360.511719 118.28125 363.660156 123.167969 C 366.804688 128.054688 368.167969 133.867188 368.980469 139.621094 C 369.175781 141.011719 369.34375 142.398438 369.484375 143.789062 Z M 137.851562 258.289062 C 137.957031 258.859375 138.152344 259.421875 138.496094 259.882812 C 139.15625 260.761719 140.269531 261.179688 141.355469 261.351562 C 146.207031 262.125 156.742188 254.941406 150.792969 249.976562 C 145.585938 245.625 136.621094 252.132812 137.851562 258.289062 Z M 20.667969 200.480469 C 18.703125 201.949219 17.207031 204.125 16.867188 206.554688 C 19.011719 207.441406 21.488281 207.261719 23.667969 206.472656 C 25.851562 205.683594 27.78125 204.332031 29.597656 202.886719 C 30.570312 202.113281 31.476562 201.253906 31.449219 199.992188 C 27.265625 198.527344 24.609375 197.539062 20.667969 200.480469 Z M 66.25 336.671875 C 67.015625 337.082031 67.933594 337.421875 68.785156 337.425781 C 69.378906 337.433594 69.933594 337.273438 70.378906 336.859375 C 70.960938 336.320312 71.160156 335.480469 71.179688 334.691406 C 71.304688 329.722656 66.605469 325.257812 61.722656 327.464844 C 56 330.050781 63.324219 335.105469 66.25 336.671875 Z M 356.28125 212.988281 C 356.644531 213.207031 357.023438 213.40625 357.414062 213.578125 C 358.246094 213.953125 359.15625 214.230469 360.058594 214.109375 C 360.964844 213.988281 361.847656 213.390625 362.078125 212.503906 C 362.839844 209.554688 355.511719 202.46875 352.457031 202.863281 C 347.546875 203.5 354.332031 211.808594 356.28125 212.988281 Z M 300.226562 320.425781 C 297.097656 323.113281 294.808594 326.769531 293.753906 330.761719 C 293.601562 331.335938 293.476562 331.9375 293.585938 332.519531 C 293.851562 333.917969 295.460938 334.738281 296.875 334.582031 C 298.289062 334.425781 299.515625 333.554688 300.589844 332.621094 C 303.167969 330.390625 305.300781 327.65625 306.835938 324.613281 C 307.082031 324.132812 307.3125 323.640625 307.367188 323.105469 C 307.84375 318.601562 302.652344 318.34375 300.226562 320.425781 Z M 314.644531 264.21875 C 315.542969 264.84375 316.769531 265.414062 317.671875 264.789062 C 319.429688 263.574219 310.855469 246.027344 307.0625 247.691406 C 300.136719 250.738281 312.34375 262.621094 314.644531 264.21875 Z M 220.492188 290.21875 C 219.273438 292.808594 218.300781 295.71875 218.992188 298.492188 C 221.445312 299.195312 223.953125 297.585938 225.75 295.773438 C 227.625 293.875 229.175781 291.660156 230.320312 289.253906 C 231.601562 286.5625 232.257812 281.539062 228 281.371094 C 224.238281 281.226562 221.769531 287.507812 220.492188 290.21875 Z M 26.023438 267.015625 C 25.730469 268.398438 25.777344 270.265625 27.121094 270.71875 C 28.542969 271.207031 32.011719 265.652344 32.527344 264.664062 C 33.605469 262.601562 34.25 260.5 32.9375 258.347656 C 29.285156 252.351562 26.574219 264.378906 26.023438 267.015625 Z M 144.402344 321.683594 C 145.4375 323.171875 146.769531 324.660156 148.554688 324.9375 C 150.113281 323.460938 149.757812 320.898438 149.027344 318.882812 C 148.140625 316.425781 145.90625 309.957031 142.355469 311.34375 C 138.125 312.996094 142.921875 319.5625 144.402344 321.683594 Z M 87.847656 263.777344 C 91.992188 263.445312 94.472656 270.375 94.375 273.550781 C 94.328125 275.128906 93.4375 276.960938 91.855469 277.046875 C 90.378906 277.128906 89.328125 275.675781 88.652344 274.359375 C 87.40625 271.929688 82.777344 264.179688 87.847656 263.777344 "/>
<path style=" stroke:none;fill-rule:nonzero;fill:rgb(95.289612%,38.038635%,33.329773%);fill-opacity:1;" d="M 172.777344 142.269531 C 172.363281 140.226562 171.953125 138.046875 172.707031 136.097656 C 173.410156 134.285156 175 132.988281 176.523438 131.78125 C 187.480469 123.089844 198.441406 114.402344 209.398438 105.710938 C 213.867188 102.167969 218.472656 98.550781 223.914062 96.859375 C 229.359375 95.167969 235.914062 95.800781 239.863281 99.910156 C 241.304688 101.410156 242.566406 103.433594 244.621094 103.738281 C 246.132812 103.960938 247.570312 103.160156 249.003906 102.644531 C 254.875 100.527344 261.617188 103.257812 265.972656 107.734375 C 270.324219 112.210938 272.796875 118.136719 275.171875 123.910156 C 277.886719 121.773438 280.695312 119.59375 284.019531 118.640625 C 287.335938 117.683594 291.339844 118.246094 293.546875 120.90625 C 294.636719 122.230469 295.183594 123.90625 295.703125 125.539062 C 298.359375 133.867188 301.015625 142.191406 303.671875 150.519531 C 289.453125 149.824219 275.0625 156.460938 266.359375 167.734375 C 256.386719 163.175781 244.011719 164.382812 235.101562 170.777344 C 232.542969 172.613281 230.175781 174.882812 227.164062 175.796875 C 220.953125 177.6875 214.472656 173.246094 207.996094 173.738281 C 203.980469 174.046875 200.363281 176.222656 196.472656 177.28125 C 174.464844 183.265625 175.738281 156.824219 172.777344 142.269531 "/>
<path style=" stroke:none;fill-rule:nonzero;fill:rgb(0%,58.81958%,53.329468%);fill-opacity:1;" d="M 140.476562 136.386719 C 147.203125 134.535156 154.597656 129.105469 160.101562 135.15625 C 164.960938 140.5 165.460938 152.738281 166.871094 159.53125 C 168.566406 167.675781 170.324219 175.941406 174.578125 183.203125 C 180.121094 192.664062 189.976562 201.738281 187.363281 212.382812 C 165.410156 212.621094 143.453125 212.621094 121.5 212.382812 C 115.960938 212.324219 110.117188 212.164062 105.402344 209.265625 C 97.90625 204.648438 95.808594 194.957031 91.644531 187.199219 C 88.09375 180.570312 82.632812 174.976562 76.09375 171.261719 C 71.8125 168.828125 66.652344 166.730469 64.925781 162.121094 C 64 159.648438 64.292969 156.851562 65.171875 154.363281 C 68.136719 145.957031 77.132812 141.015625 85.941406 139.644531 C 94.75 138.273438 103.722656 139.679688 112.636719 139.867188 C 122.015625 140.066406 131.429688 138.878906 140.476562 136.386719 "/>
<path style=" stroke:none;fill-rule:nonzero;fill:rgb(98.81897%,79.60968%,48.629761%);fill-opacity:1;" d="M 219.457031 87.242188 C 222.285156 86.546875 225.964844 85.375 225.917969 82.460938 C 225.898438 81.15625 225.039062 80.03125 224.21875 79.015625 C 217.816406 71.085938 210.582031 62.632812 200.578125 60.671875 C 193.449219 59.273438 186.148438 61.476562 179.289062 63.875 C 171.683594 66.542969 164.175781 69.480469 156.78125 72.683594 C 154.550781 73.65625 151.945312 75.246094 152.136719 77.671875 C 152.292969 79.679688 154.3125 80.929688 156.078125 81.894531 C 162.011719 85.152344 167.652344 88.9375 172.921875 93.179688 C 176.488281 96.0625 183.203125 105.589844 187.546875 106.433594 C 192.519531 107.402344 197.984375 99.613281 201.738281 96.675781 C 207.050781 92.511719 212.835938 88.875 219.457031 87.242188 Z M 151.832031 94.652344 C 156.8125 98.363281 165.015625 102.136719 167.640625 108.199219 C 173.074219 120.746094 144.945312 125.492188 136.210938 128.875 C 134.921875 129.378906 133.582031 129.882812 132.199219 129.8125 C 130.484375 129.71875 128.960938 128.75 127.527344 127.8125 C 123.554688 125.21875 119.582031 122.621094 115.609375 120.027344 C 108.867188 115.621094 101.394531 109.996094 101.0625 101.949219 C 101.035156 101.324219 101.058594 100.691406 101.246094 100.097656 C 101.726562 98.597656 103.148438 97.640625 104.476562 96.796875 C 108.777344 94.0625 113.085938 91.328125 117.390625 88.59375 C 121.945312 85.703125 126.90625 82.703125 132.289062 83.058594 C 139.957031 83.570312 146.035156 90.328125 151.832031 94.652344 "/>
</g>
</svg>
